<svg height="510pt" viewBox="0 0 510 510.75686" width="510pt" xmlns="http://www.w3.org/2000/svg"><path d="m446.289062 7.1875c25.816407-6.296875 52.179688 8.097656 60.839844 33.21875 9.511719 24.808594-1.433594 52.78125-25.253906 64.546875l-24.507812-35.574219zm0 0" fill="#b0d3f0"/><path d="m28.367188 196.121094 123.316406-44.882813 11.921875 32.75-123.316407 44.882813zm0 0" fill="#e4c05c"/><path d="m56.796875 222.855469-35.511719 21.121093c-1.128906.675782-2.5.8125-3.738281.371094-1.242187-.441406-2.21875-1.410156-2.671875-2.648437l-14.230469-39.105469c-.449219-1.234375-.328125-2.605469.335938-3.742188.667969-1.136718 1.800781-1.914062 3.101562-2.128906l40.765625-6.617187zm0 0" fill="#f29c1f"/><path d="m219.023438 245.929688h35.308593v61.792968h-35.308593zm0 0" fill="#b19046"/><path d="m280.816406 143.175781v93.925781c-.027344 9.738282-7.917968 17.625-17.65625 17.65625h-52.964844c-9.738281-.03125-17.625-7.917968-17.65625-17.65625v-61.792968zm0 0" fill="#f0c419"/><path d="m245.507812 219.445312c0 4.875-3.953124 8.828126-8.828124 8.828126s-8.828126-3.953126-8.828126-8.828126 3.953126-8.828124 8.828126-8.828124 8.828124 3.953124 8.828124 8.828124zm0 0" fill="#d25627"/><path d="m111.941406 147.148438 198.902344-72.394532 23.851562 65.53125-198.902343 72.394532c-2.289063.835937-4.824219-.347657-5.65625-2.636719l-20.832031-57.238281c-.835938-2.289063.34375-4.820313 2.636718-5.65625zm0 0" fill="#f3d55b"/><path d="m278.160156 68.105469 126.660156-46.101563 36.132813 99.277344-126.660156 46.101562c-2.289063.832032-4.824219-.347656-5.65625-2.640624l-33.117188-90.980469c-.832031-2.292969.347657-4.824219 2.640625-5.65625zm0 0" fill="#f0c419"/><path d="m219.023438 334.207031h35.308593v158.894531c0 9.75-7.902343 17.65625-17.652343 17.65625-9.753907 0-17.65625-7.90625-17.65625-17.65625zm0 0" fill="#cb8252"/><path d="m307.300781 325.554688.527344-.175782 51.378906 140.976563c2.160157 5.929687.992188 12.558593-3.0625 17.394531-4.054687 4.835938-10.382812 7.140625-16.597656 6.046875s-11.371094-5.417969-13.535156-11.347656l-49.257813-135.417969" fill="#805333"/><path d="m196.601562 343.03125-49.257812 135.417969c-2.160156 5.929687-7.320312 10.253906-13.535156 11.347656s-12.542969-1.210937-16.597656-6.046875c-4.054688-4.835938-5.21875-11.464844-3.058594-17.394531l51.375-140.976563.53125.175782" fill="#805333"/><path d="m360.265625 87.03125c-4.238281.007812-7.882813-2.992188-8.6875-7.15625-.800781-4.160156 1.464844-8.300781 5.402344-9.871094l44.136719-17.65625c2.929687-1.171875 6.265624-.691406 8.746093 1.257813s3.730469 5.078125 3.285157 8.199219c-.449219 3.125-2.53125 5.773437-5.460938 6.945312l-44.140625 17.65625c-1.042969.414062-2.15625.628906-3.28125.625zm0 0" fill="#d25627"/><path d="m183.710938 290.066406h105.933593c14.625 0 26.480469 11.859375 26.480469 26.484375s-11.855469 26.480469-26.480469 26.480469h-105.933593c-14.625 0-26.480469-11.855469-26.480469-26.480469s11.855469-26.484375 26.480469-26.484375zm0 0" fill="#804537"/><path d="m395.710938 16.050781 43.359374-15.78125c2.292969-.835937 4.824219.347657 5.660157 2.636719l38.699219 106.328125c.832031 2.292969-.347657 4.824219-2.640626 5.65625l-43.355468 15.785156c-2.292969.832031-4.824219-.347656-5.660156-2.640625l-38.699219-106.328125c-.832031-2.289062.347656-4.824219 2.636719-5.65625zm0 0" fill="#f29c1f"/></svg>