<svg xmlns="http://www.w3.org/2000/svg" viewBox="0 0 574.73 245.45"><defs><style>.cls-1{fill:#f29c1f;}.cls-2,.cls-4{fill:#fccb3f;}.cls-3{fill:#41bbf9;}.cls-4{font-size:80.76px;font-family:Ebrima, Ebrima;}</style></defs><title>lookatspace</title><g id="Layer_2" data-name="Layer 2"><rect class="cls-1" x="95.37" y="93.32" width="39.28" height="58.06"/><polygon class="cls-2" points="9.95 130.3 18.83 125.19 20.54 128.15 64.95 102.61 63.25 99.65 73.61 93.69 71.91 90.73 163.7 37.95 162 34.99 170.88 29.89 170.03 28.41 212.96 3.72 216.99 7.31 214.66 6.68 235.94 43.69 236.57 41.36 237.65 46.65 196.19 70.49 194.49 67.53 184.13 73.49 182.42 70.53 90.64 123.3 89.78 121.82 79.42 127.78 77.72 124.82 33.3 150.36 34.16 151.84 25.27 156.94 9.95 130.3"/><path class="cls-3" d="M255.08,23.2l23,40s6.33-9.55-3.89-27.31A25.62,25.62,0,0,0,255.08,23.2Z" transform="translate(-41.27 -18)"/><rect class="cls-1" x="58.2" y="143.7" width="10.25" height="30.74" transform="translate(-112.13 34.73) rotate(-29.9)"/><rect class="cls-1" x="111.81" y="112.51" width="11.95" height="32.45" transform="translate(-89.76 57.84) rotate(-29.9)"/><rect class="cls-1" x="213.65" y="47.49" width="10.25" height="44.4" transform="translate(-46.89 100.32) rotate(-29.9)"/><text class="cls-4" transform="translate(0 219.66)">Look at Space</text><circle class="cls-2" cx="337.73" cy="4" r="4"/><path class="cls-2" d="M350,84s7-1,8-8c0,0,2,7,7,8,0,0-7,4-7,8C358,92,358,86,350,84Z" transform="translate(-41.27 -18)"/><path class="cls-2" d="M442,24s5-3,5-5c0,0,3,5,5,5,0,0-5,3-5,5C447,29,445,24,442,24Z" transform="translate(-41.27 -18)"/><circle class="cls-2" cx="534.73" cy="66" r="2"/><path class="cls-2" d="M512,121s2.67-1,4.44-5c0,0,1.78,4,3.56,5,0,0-3.56,1-3.56,4C516.44,125,513.78,121,512,121Z" transform="translate(-41.27 -18)"/><path class="cls-2" d="M442,77s5-3,5-5c0,0,3,5,5,5,0,0-5,3-5,5C447,82,445,77,442,77Z" transform="translate(-41.27 -18)"/><circle class="cls-2" cx="570.73" cy="7" r="4"/><circle class="cls-2" cx="506.73" cy="7" r="2"/><circle class="cls-2" cx="263.73" cy="18" r="2"/><path class="cls-2" d="M518,69s2.67-1,4.44-5c0,0,1.78,4,3.56,5,0,0-3.56,1-3.56,4C522.44,73,519.78,69,518,69Z" transform="translate(-41.27 -18)"/><circle class="cls-2" cx="281.73" cy="106" r="4"/></g></svg>